<svg width="20" height="24" viewBox="0 0 20 24" fill="none" xmlns="http://www.w3.org/2000/svg">
<path d="M19.1013 10.789C19.0142 10.8762 18.9108 10.9453 18.797 10.9925C18.6832 11.0397 18.5612 11.064 18.438 11.064C18.3148 11.064 18.1928 11.0397 18.079 10.9925C17.9652 10.9453 17.8618 10.8762 17.7747 10.789L10.938 3.95113L10.938 22.3132C10.938 22.5619 10.8392 22.8003 10.6634 22.9762C10.4876 23.152 10.2492 23.2507 10.0005 23.2507C9.75188 23.2507 9.51342 23.152 9.33761 22.9762C9.16179 22.8003 9.06302 22.5619 9.06302 22.3132L9.06302 3.95113L2.2263 10.789C2.05039 10.9649 1.8118 11.0638 1.56302 11.0638C1.31424 11.0638 1.07565 10.9649 0.89974 10.789C0.723827 10.6131 0.625 10.3745 0.625 10.1257C0.625 9.87696 0.723827 9.63837 0.89974 9.46246L9.33724 1.02496C9.42431 0.937791 9.5277 0.868642 9.64151 0.821463C9.75533 0.774284 9.87732 0.75 10.0005 0.75C10.1237 0.75 10.2457 0.774284 10.3595 0.821463C10.4733 0.868642 10.5767 0.937791 10.6638 1.02496L19.1013 9.46246C19.1885 9.54952 19.2576 9.65292 19.3048 9.76673C19.352 9.88054 19.3763 10.0025 19.3763 10.1257C19.3763 10.2489 19.352 10.3709 19.3048 10.4847C19.2576 10.5986 19.1885 10.702 19.1013 10.789Z" fill="white"/>
</svg>
