<svg width="18" height="22" viewBox="0 0 18 22" fill="none" xmlns="http://www.w3.org/2000/svg">
<path fill-rule="evenodd" clip-rule="evenodd" d="M0.949 0.950953C1.49286 0.407097 2.23048 0.101562 2.99961 0.101562H10.5596C11.3173 0.101657 12.045 0.398316 12.5868 0.928062L17.0267 5.26995C17.303 5.54001 17.5225 5.86254 17.6724 6.21861C17.8223 6.57468 17.8996 6.95711 17.8996 7.34345V19.0016C17.8996 19.7707 17.5941 20.5083 17.0502 21.0522C16.5064 21.596 15.7687 21.9016 14.9996 21.9016H2.99961C2.23048 21.9016 1.49285 21.596 0.949 21.0522C0.405144 20.5083 0.0996094 19.7707 0.0996094 19.0016V3.00156C0.0996094 2.23243 0.405144 1.49481 0.949 0.950953ZM2.99961 1.90156C2.70787 1.90156 2.42808 2.01745 2.22179 2.22374C2.0155 2.43003 1.89961 2.70982 1.89961 3.00156V19.0016C1.89961 19.2933 2.0155 19.5731 2.22179 19.7794C2.42808 19.9857 2.70787 20.1016 2.99961 20.1016H14.9996C15.2913 20.1016 15.5711 19.9857 15.7774 19.7794C15.9837 19.5731 16.0996 19.2933 16.0996 19.0016V7.34367C16.0996 7.34364 16.0996 7.34371 16.0996 7.34367C16.0996 7.19717 16.0703 7.05204 16.0134 6.91701C15.9566 6.78194 15.8733 6.6596 15.7685 6.55717L11.3284 2.21506C11.1229 2.01415 10.847 1.90163 10.5596 1.90156C10.5596 1.90156 10.5596 1.90156 10.5596 1.90156H2.99961ZM5.09961 12.0016C5.09961 11.5045 5.50255 11.1016 5.99961 11.1016H11.9996C12.4967 11.1016 12.8996 11.5045 12.8996 12.0016C12.8996 12.4986 12.4967 12.9016 11.9996 12.9016H5.99961C5.50255 12.9016 5.09961 12.4986 5.09961 12.0016ZM5.09961 16.0016C5.09961 15.5045 5.50255 15.1016 5.99961 15.1016H8.99961C9.49667 15.1016 9.89961 15.5045 9.89961 16.0016C9.89961 16.4986 9.49667 16.9016 8.99961 16.9016H5.99961C5.50255 16.9016 5.09961 16.4986 5.09961 16.0016Z" fill="#003883"/>
<path fill-rule="evenodd" clip-rule="evenodd" d="M10.0996 5V1H11.8996V5C11.8996 5.29174 12.0155 5.57153 12.2218 5.77782C12.4281 5.98411 12.7079 6.1 12.9996 6.1H16.9996V7.9H12.9996C12.2305 7.9 11.4929 7.59447 10.949 7.05061C10.4051 6.50675 10.0996 5.76913 10.0996 5Z" fill="#003883"/>
</svg>
