<svg width="16" height="16" viewBox="0 0 16 16" fill="none" xmlns="http://www.w3.org/2000/svg">
<path fill-rule="evenodd" clip-rule="evenodd" d="M15.1882 15.197C14.6697 15.7119 13.9679 16 13.2375 16L7.06968 16C6.33933 16 5.6375 15.7119 5.11896 15.197C4.60017 14.6818 4.30745 13.9816 4.30745 13.25L4.30745 11.5C4.30745 10.9477 4.75516 10.5 5.30745 10.5C5.85973 10.5 6.30745 10.9477 6.30745 11.5L6.30745 13.25C6.30745 13.4467 6.38605 13.6367 6.52823 13.7779C6.67065 13.9193 6.86529 14 7.06969 14L13.2375 14C13.4419 14 13.6366 13.9193 13.779 13.7779C13.9212 13.6367 13.9998 13.4467 13.9998 13.25L13.9998 2.75C13.9998 2.55335 13.9212 2.36333 13.779 2.22213C13.6366 2.0807 13.4419 2 13.2375 2L7.06969 2C6.86529 2 6.67066 2.0807 6.52823 2.22213C6.38605 2.36333 6.30745 2.55335 6.30745 2.75L6.30745 4.5C6.30745 5.05228 5.85973 5.5 5.30745 5.5C4.75516 5.5 4.30745 5.05228 4.30745 4.5L4.30745 2.75C4.30745 2.0184 4.60018 1.31818 5.11896 0.802998C5.6375 0.288052 6.33933 1.09133e-07 7.06969 1.72983e-07L13.2375 7.12192e-07C13.9679 7.76041e-07 14.6697 0.288051 15.1882 0.802998C15.707 1.31818 15.9998 2.0184 15.9998 2.75L15.9998 13.25C15.9998 13.9816 15.707 14.6818 15.1882 15.197Z" fill="white"/>
<path fill-rule="evenodd" clip-rule="evenodd" d="M8.77537 11.2425C8.471 10.9616 8.45202 10.4871 8.73298 10.1827L10.0563 8.74909L1.00006 8.74909C0.585842 8.74909 0.250057 8.41331 0.250057 7.99909C0.250057 7.58488 0.585842 7.24909 1.00006 7.24909L10.0563 7.2491L8.73298 5.8155C8.45202 5.51113 8.471 5.03664 8.77537 4.75569C9.07974 4.47473 9.55423 4.49371 9.83518 4.79808L12.3204 7.49039C12.5856 7.77768 12.5856 8.22051 12.3204 8.50781L9.83518 11.2001C9.55423 11.5045 9.07974 11.5235 8.77537 11.2425Z" fill="white"/>
</svg>
