<svg width="22" height="28" viewBox="0 0 22 28" fill="none" xmlns="http://www.w3.org/2000/svg">
<path d="M19.4375 11.1875C19.4375 8.94974 18.5486 6.80362 16.9662 5.22129C15.3839 3.63895 13.2378 2.75 11 2.75C8.76224 2.75 6.61612 3.63895 5.03379 5.22129C3.45145 6.80362 2.5625 8.94974 2.5625 11.1875C2.5625 14.6488 5.33187 19.16 11 24.5637C16.6681 19.16 19.4375 14.6488 19.4375 11.1875ZM11 27.125C4.12437 20.8756 0.6875 15.5619 0.6875 11.1875C0.6875 8.45246 1.77399 5.82943 3.70796 3.89546C5.64193 1.96149 8.26496 0.875 11 0.875C13.735 0.875 16.3581 1.96149 18.292 3.89546C20.226 5.82943 21.3125 8.45246 21.3125 11.1875C21.3125 15.5619 17.8756 20.8756 11 27.125Z" fill="#003883"/>
<path d="M11 14C11.7459 14 12.4613 13.7037 12.9887 13.1762C13.5162 12.6488 13.8125 11.9334 13.8125 11.1875C13.8125 10.4416 13.5162 9.72621 12.9887 9.19876C12.4613 8.67132 11.7459 8.375 11 8.375C10.2541 8.375 9.53871 8.67132 9.01126 9.19876C8.48382 9.72621 8.1875 10.4416 8.1875 11.1875C8.1875 11.9334 8.48382 12.6488 9.01126 13.1762C9.53871 13.7037 10.2541 14 11 14ZM11 15.875C9.7568 15.875 8.56451 15.3811 7.68544 14.5021C6.80636 13.623 6.3125 12.4307 6.3125 11.1875C6.3125 9.9443 6.80636 8.75201 7.68544 7.87294C8.56451 6.99386 9.7568 6.5 11 6.5C12.2432 6.5 13.4355 6.99386 14.3146 7.87294C15.1936 8.75201 15.6875 9.9443 15.6875 11.1875C15.6875 12.4307 15.1936 13.623 14.3146 14.5021C13.4355 15.3811 12.2432 15.875 11 15.875Z" fill="#003883"/>
</svg>
