<svg width="16" height="16" viewBox="0 0 16 16" fill="none" xmlns="http://www.w3.org/2000/svg">
<path fill-rule="evenodd" clip-rule="evenodd" d="M2.05025 2.05025C3.36301 0.737498 5.14348 0 7 0C8.85652 0 10.637 0.737498 11.9497 2.05025C13.2625 3.36301 14 5.14348 14 7C14 7.91925 13.8189 8.8295 13.4672 9.67878C13.2437 10.2182 12.9542 10.7263 12.6061 11.1919L15.7071 14.2929C16.0976 14.6834 16.0976 15.3166 15.7071 15.7071C15.3166 16.0976 14.6834 16.0976 14.2929 15.7071L11.1919 12.6061C10.7263 12.9542 10.2182 13.2437 9.67878 13.4672C8.8295 13.8189 7.91925 14 7 14C6.08075 14 5.1705 13.8189 4.32122 13.4672C3.47194 13.1154 2.70026 12.5998 2.05025 11.9497C1.40024 11.2997 0.884626 10.5281 0.532843 9.67878C0.18106 8.8295 0 7.91925 0 7C0 5.14348 0.737498 3.36301 2.05025 2.05025ZM7 2C5.67392 2 4.40215 2.52678 3.46447 3.46447C2.52678 4.40215 2 5.67392 2 7C2 7.65661 2.12933 8.30679 2.3806 8.91342C2.63188 9.52005 3.00017 10.0712 3.46447 10.5355C3.92876 10.9998 4.47996 11.3681 5.08658 11.6194C5.69321 11.8707 6.34339 12 7 12C7.65661 12 8.30679 11.8707 8.91342 11.6194C9.52004 11.3681 10.0712 10.9998 10.5355 10.5355C10.9998 10.0712 11.3681 9.52004 11.6194 8.91342C11.8707 8.30679 12 7.65661 12 7C12 5.67392 11.4732 4.40215 10.5355 3.46447C9.59785 2.52678 8.32608 2 7 2Z" fill="white"/>
</svg>
