<svg width="23" height="14" viewBox="0 0 23 14" fill="none" xmlns="http://www.w3.org/2000/svg">
<path d="M22.0747 13.9989H19.5574C18.6051 13.9989 18.3181 13.2085 16.6109 11.4581C15.1189 9.98477 14.4888 9.80159 14.1113 9.80159C13.5893 9.80159 13.447 9.94859 13.447 10.6847V13.005C13.447 13.6325 13.2483 14 11.6482 14C10.0958 13.8931 8.59036 13.4099 7.25593 12.5902C5.9215 11.7704 4.79625 10.6375 3.97285 9.28485C2.01775 6.79161 0.657404 3.86534 0 0.738772C0 0.352061 0.143464 0.00153418 0.862991 0.00153418H3.37913C4.02582 0.00153418 4.25867 0.296656 4.51249 0.978487C5.73414 4.66241 7.81879 7.86691 8.66522 7.86691C8.98967 7.86691 9.13093 7.71991 9.13093 6.89109V3.09635C9.02388 1.3652 8.12668 1.21933 8.12668 0.592907C8.13803 0.427641 8.21181 0.273417 8.33236 0.162995C8.4529 0.0525729 8.61071 -0.00534836 8.77227 0.00153418H12.7275C13.2682 0.00153418 13.447 0.277433 13.447 0.940042V6.06226C13.447 6.61519 13.6787 6.79837 13.8421 6.79837C14.1665 6.79837 14.4159 6.61519 15.0107 6.00685C16.2858 4.41364 17.3274 2.63859 18.1029 0.737641C18.1823 0.509406 18.3324 0.31404 18.5302 0.18134C18.7281 0.0486402 18.9629 -0.0141087 19.1988 0.00266483H21.716C22.4709 0.00266483 22.6309 0.389376 22.4709 0.941173C21.5553 3.04254 20.4225 5.03725 19.0917 6.89109C18.8203 7.31511 18.7121 7.5356 19.0917 8.03312C19.3411 8.41984 20.224 9.17517 20.8166 9.89318C21.6796 10.7752 22.3958 11.7951 22.9377 12.9122C23.154 13.6314 22.7931 13.9989 22.0747 13.9989Z" fill="white"/>
</svg>
