<svg width="47" height="47" viewBox="0 0 47 47" fill="none" xmlns="http://www.w3.org/2000/svg">
<rect width="47" height="47" fill="#003883"/>
<path d="M30.3516 30.3516L37.2057 37.2057M9.78906 21.5391C9.78906 23.0821 10.093 24.61 10.6835 26.0356C11.274 27.4612 12.1395 28.7565 13.2306 29.8476C14.3216 30.9387 15.617 31.8042 17.0425 32.3946C18.4681 32.9851 19.996 33.2891 21.5391 33.2891C23.0821 33.2891 24.61 32.9851 26.0356 32.3946C27.4612 31.8042 28.7565 30.9387 29.8476 29.8476C30.9387 28.7565 31.8042 27.4612 32.3946 26.0356C32.9851 24.61 33.2891 23.0821 33.2891 21.5391C33.2891 18.4228 32.0511 15.4341 29.8476 13.2306C27.644 11.027 24.6554 9.78906 21.5391 9.78906C18.4228 9.78906 15.4341 11.027 13.2306 13.2306C11.027 15.4341 9.78906 18.4228 9.78906 21.5391Z" stroke="white" stroke-width="2" stroke-linecap="round" stroke-linejoin="round"/>
<rect x="20.2969" y="16.0234" width="2.13636" height="10.6818" fill="white"/>
<rect x="26.7031" y="20.2969" width="2.13636" height="10.6818" transform="rotate(90 26.7031 20.2969)" fill="white"/>
</svg>
