<svg width="1381" height="658" viewBox="0 0 1381 658" fill="none" xmlns="http://www.w3.org/2000/svg">
<path d="M529.707 95.2929C529.317 94.9024 528.683 94.9024 528.293 95.2929L521.929 101.657C521.538 102.047 521.538 102.681 521.929 103.071C522.319 103.462 522.953 103.462 523.343 103.071L529 97.4142L534.657 103.071C535.047 103.462 535.681 103.462 536.071 103.071C536.462 102.681 536.462 102.047 536.071 101.657L529.707 95.2929ZM530 188L530 96L528 96L528 188L530 188Z" fill="#789DCE"/>
<path d="M555.228 119.382C556.272 119.382 557.184 119.634 557.964 120.138C558.756 120.63 559.368 121.356 559.8 122.316C560.244 123.276 560.466 124.44 560.466 125.808C560.466 127.152 560.244 128.304 559.8 129.264C559.368 130.224 558.756 130.956 557.964 131.46C557.184 131.964 556.272 132.216 555.228 132.216C554.184 132.216 553.266 131.97 552.474 131.478C551.694 130.986 551.082 130.26 550.638 129.3C550.206 128.34 549.99 127.182 549.99 125.826C549.99 124.494 550.206 123.342 550.638 122.37C551.082 121.398 551.7 120.66 552.492 120.156C553.284 119.64 554.196 119.382 555.228 119.382ZM555.228 120.786C554.148 120.786 553.308 121.194 552.708 122.01C552.108 122.826 551.808 124.098 551.808 125.826C551.808 127.542 552.108 128.802 552.708 129.606C553.32 130.41 554.16 130.812 555.228 130.812C557.508 130.812 558.648 129.144 558.648 125.808C558.648 122.46 557.508 120.786 555.228 120.786ZM569.581 122.514L569.383 123.864H566.341V132H564.685V123.864H561.553V122.514H569.581ZM577.81 122.514V132H576.154V128.04C575.806 128.364 575.374 128.622 574.858 128.814C574.354 128.994 573.832 129.084 573.292 129.084C572.392 129.084 571.714 128.844 571.258 128.364C570.802 127.872 570.574 127.176 570.574 126.276V122.514H572.23V126.078C572.23 126.678 572.35 127.116 572.59 127.392C572.842 127.656 573.226 127.788 573.742 127.788C574.162 127.788 574.6 127.692 575.056 127.5C575.524 127.308 575.89 127.062 576.154 126.762V122.514H577.81ZM588.39 126.978C588.39 127.254 588.378 127.536 588.354 127.824H582.306C582.378 128.868 582.642 129.636 583.098 130.128C583.554 130.62 584.142 130.866 584.862 130.866C585.318 130.866 585.738 130.8 586.122 130.668C586.506 130.536 586.908 130.326 587.328 130.038L588.048 131.028C587.04 131.82 585.936 132.216 584.736 132.216C583.416 132.216 582.384 131.784 581.64 130.92C580.908 130.056 580.542 128.868 580.542 127.356C580.542 126.372 580.698 125.502 581.01 124.746C581.334 123.978 581.79 123.378 582.378 122.946C582.978 122.514 583.68 122.298 584.484 122.298C585.744 122.298 586.71 122.712 587.382 123.54C588.054 124.368 588.39 125.514 588.39 126.978ZM586.752 126.492C586.752 125.556 586.566 124.842 586.194 124.35C585.822 123.858 585.264 123.612 584.52 123.612C583.164 123.612 582.426 124.608 582.306 126.6H586.752V126.492ZM596.985 122.514L596.787 123.864H593.745V132H592.089V123.864H588.957V122.514H596.985ZM604.296 132V127.824H600.354V132H598.698V122.514H600.354V126.492H604.296V122.514H605.952V132H604.296ZM612.932 122.298C614.264 122.298 615.296 122.742 616.028 123.63C616.772 124.518 617.144 125.724 617.144 127.248C617.144 128.232 616.976 129.102 616.64 129.858C616.304 130.602 615.818 131.184 615.182 131.604C614.546 132.012 613.79 132.216 612.914 132.216C611.582 132.216 610.544 131.772 609.8 130.884C609.056 129.996 608.684 128.79 608.684 127.266C608.684 126.282 608.852 125.418 609.188 124.674C609.524 123.918 610.01 123.336 610.646 122.928C611.282 122.508 612.044 122.298 612.932 122.298ZM612.932 123.63C611.288 123.63 610.466 124.842 610.466 127.266C610.466 129.678 611.282 130.884 612.914 130.884C614.546 130.884 615.362 129.672 615.362 127.248C615.362 124.836 614.552 123.63 612.932 123.63ZM623.336 122.298C623.9 122.298 624.416 122.382 624.884 122.55C625.352 122.706 625.802 122.964 626.234 123.324L625.442 124.368C625.106 124.128 624.776 123.954 624.452 123.846C624.14 123.726 623.792 123.666 623.408 123.666C622.64 123.666 622.04 123.972 621.608 124.584C621.188 125.196 620.978 126.102 620.978 127.302C620.978 128.502 621.188 129.39 621.608 129.966C622.028 130.53 622.628 130.812 623.408 130.812C623.78 130.812 624.122 130.758 624.434 130.65C624.746 130.53 625.094 130.344 625.478 130.092L626.234 131.172C625.37 131.868 624.404 132.216 623.336 132.216C622.052 132.216 621.038 131.784 620.294 130.92C619.562 130.056 619.196 128.862 619.196 127.338C619.196 126.33 619.364 125.448 619.7 124.692C620.036 123.936 620.51 123.348 621.122 122.928C621.746 122.508 622.484 122.298 623.336 122.298ZM634.884 122.514L634.686 123.864H631.644V132H629.988V123.864H626.856V122.514H634.884ZM639.513 125.574C640.929 125.574 641.955 125.85 642.591 126.402C643.227 126.954 643.545 127.74 643.545 128.76C643.545 129.828 643.185 130.638 642.465 131.19C641.757 131.73 640.875 132 639.819 132H636.597V122.514H638.253V125.574H639.513ZM639.675 130.704C640.347 130.704 640.863 130.554 641.223 130.254C641.595 129.954 641.781 129.456 641.781 128.76C641.781 128.1 641.607 127.614 641.259 127.302C640.923 126.99 640.335 126.834 639.495 126.834H638.253V130.704H639.675Z" fill="#789DCE"/>
<path d="M555.228 151.382C556.272 151.382 557.184 151.634 557.964 152.138C558.756 152.63 559.368 153.356 559.8 154.316C560.244 155.276 560.466 156.44 560.466 157.808C560.466 159.152 560.244 160.304 559.8 161.264C559.368 162.224 558.756 162.956 557.964 163.46C557.184 163.964 556.272 164.216 555.228 164.216C554.184 164.216 553.266 163.97 552.474 163.478C551.694 162.986 551.082 162.26 550.638 161.3C550.206 160.34 549.99 159.182 549.99 157.826C549.99 156.494 550.206 155.342 550.638 154.37C551.082 153.398 551.7 152.66 552.492 152.156C553.284 151.64 554.196 151.382 555.228 151.382ZM555.228 152.786C554.148 152.786 553.308 153.194 552.708 154.01C552.108 154.826 551.808 156.098 551.808 157.826C551.808 159.542 552.108 160.802 552.708 161.606C553.32 162.41 554.16 162.812 555.228 162.812C557.508 162.812 558.648 161.144 558.648 157.808C558.648 154.46 557.508 152.786 555.228 152.786ZM569.581 154.514L569.383 155.864H566.341V164H564.685V155.864H561.553V154.514H569.581ZM576.298 158.852C577.906 159.008 578.71 159.752 578.71 161.084C578.71 162.08 578.344 162.818 577.612 163.298C576.892 163.766 575.926 164 574.714 164H571.294V154.64C572.41 154.412 573.448 154.298 574.408 154.298C575.584 154.298 576.514 154.52 577.198 154.964C577.882 155.408 578.224 156.044 578.224 156.872C578.224 157.412 578.062 157.85 577.738 158.186C577.414 158.522 576.934 158.744 576.298 158.852ZM574.426 155.576C573.922 155.576 573.43 155.612 572.95 155.684V158.366H574.732C575.308 158.366 575.752 158.258 576.064 158.042C576.376 157.826 576.532 157.46 576.532 156.944C576.532 156.464 576.358 156.116 576.01 155.9C575.662 155.684 575.134 155.576 574.426 155.576ZM574.714 162.704C575.422 162.704 575.974 162.584 576.37 162.344C576.766 162.104 576.964 161.672 576.964 161.048C576.964 160.532 576.796 160.16 576.46 159.932C576.124 159.704 575.554 159.59 574.75 159.59H572.95V162.704H574.714ZM588.548 158.978C588.548 159.254 588.536 159.536 588.512 159.824H582.464C582.536 160.868 582.8 161.636 583.256 162.128C583.712 162.62 584.3 162.866 585.02 162.866C585.476 162.866 585.896 162.8 586.28 162.668C586.664 162.536 587.066 162.326 587.486 162.038L588.206 163.028C587.198 163.82 586.094 164.216 584.894 164.216C583.574 164.216 582.542 163.784 581.798 162.92C581.066 162.056 580.7 160.868 580.7 159.356C580.7 158.372 580.856 157.502 581.168 156.746C581.492 155.978 581.948 155.378 582.536 154.946C583.136 154.514 583.838 154.298 584.642 154.298C585.902 154.298 586.868 154.712 587.54 155.54C588.212 156.368 588.548 157.514 588.548 158.978ZM586.91 158.492C586.91 157.556 586.724 156.842 586.352 156.35C585.98 155.858 585.422 155.612 584.678 155.612C583.322 155.612 582.584 156.608 582.464 158.6H586.91V158.492ZM597.143 154.514L596.945 155.864H593.903V164H592.247V155.864H589.115V154.514H597.143ZM601.855 154.298C602.419 154.298 602.935 154.382 603.403 154.55C603.871 154.706 604.321 154.964 604.753 155.324L603.961 156.368C603.625 156.128 603.295 155.954 602.971 155.846C602.659 155.726 602.311 155.666 601.927 155.666C601.159 155.666 600.559 155.972 600.127 156.584C599.707 157.196 599.497 158.102 599.497 159.302C599.497 160.502 599.707 161.39 600.127 161.966C600.547 162.53 601.147 162.812 601.927 162.812C602.299 162.812 602.641 162.758 602.953 162.65C603.265 162.53 603.613 162.344 603.997 162.092L604.753 163.172C603.889 163.868 602.923 164.216 601.855 164.216C600.571 164.216 599.557 163.784 598.813 162.92C598.081 162.056 597.715 160.862 597.715 159.338C597.715 158.33 597.883 157.448 598.219 156.692C598.555 155.936 599.029 155.348 599.641 154.928C600.265 154.508 601.003 154.298 601.855 154.298ZM613.403 154.514L613.205 155.864H610.163V164H608.507V155.864H605.375V154.514H613.403ZM620.12 158.852C621.728 159.008 622.532 159.752 622.532 161.084C622.532 162.08 622.166 162.818 621.434 163.298C620.714 163.766 619.748 164 618.536 164H615.116V154.64C616.232 154.412 617.27 154.298 618.23 154.298C619.406 154.298 620.336 154.52 621.02 154.964C621.704 155.408 622.046 156.044 622.046 156.872C622.046 157.412 621.884 157.85 621.56 158.186C621.236 158.522 620.756 158.744 620.12 158.852ZM618.248 155.576C617.744 155.576 617.252 155.612 616.772 155.684V158.366H618.554C619.13 158.366 619.574 158.258 619.886 158.042C620.198 157.826 620.354 157.46 620.354 156.944C620.354 156.464 620.18 156.116 619.832 155.9C619.484 155.684 618.956 155.576 618.248 155.576ZM618.536 162.704C619.244 162.704 619.796 162.584 620.192 162.344C620.588 162.104 620.786 161.672 620.786 161.048C620.786 160.532 620.618 160.16 620.282 159.932C619.946 159.704 619.376 159.59 618.572 159.59H616.772V162.704H618.536ZM632.37 158.978C632.37 159.254 632.358 159.536 632.334 159.824H626.286C626.358 160.868 626.622 161.636 627.078 162.128C627.534 162.62 628.122 162.866 628.842 162.866C629.298 162.866 629.718 162.8 630.102 162.668C630.486 162.536 630.888 162.326 631.308 162.038L632.028 163.028C631.02 163.82 629.916 164.216 628.716 164.216C627.396 164.216 626.364 163.784 625.62 162.92C624.888 162.056 624.522 160.868 624.522 159.356C624.522 158.372 624.678 157.502 624.99 156.746C625.314 155.978 625.77 155.378 626.358 154.946C626.958 154.514 627.66 154.298 628.464 154.298C629.724 154.298 630.69 154.712 631.362 155.54C632.034 156.368 632.37 157.514 632.37 158.978ZM630.732 158.492C630.732 157.556 630.546 156.842 630.174 156.35C629.802 155.858 629.244 155.612 628.5 155.612C627.144 155.612 626.406 156.608 626.286 158.6H630.732V158.492ZM640.613 164V159.824H636.671V164H635.015V154.514H636.671V158.492H640.613V154.514H642.269V164H640.613ZM651.283 164V159.824H647.341V164H645.685V154.514H647.341V158.492H651.283V154.514H652.939V164H651.283ZM659.919 154.298C661.251 154.298 662.283 154.742 663.015 155.63C663.759 156.518 664.131 157.724 664.131 159.248C664.131 160.232 663.963 161.102 663.627 161.858C663.291 162.602 662.805 163.184 662.169 163.604C661.533 164.012 660.777 164.216 659.901 164.216C658.569 164.216 657.531 163.772 656.787 162.884C656.043 161.996 655.671 160.79 655.671 159.266C655.671 158.282 655.839 157.418 656.175 156.674C656.511 155.918 656.997 155.336 657.633 154.928C658.269 154.508 659.031 154.298 659.919 154.298ZM659.919 155.63C658.275 155.63 657.453 156.842 657.453 159.266C657.453 161.678 658.269 162.884 659.901 162.884C661.533 162.884 662.349 161.672 662.349 159.248C662.349 156.836 661.539 155.63 659.919 155.63ZM670.322 154.298C670.886 154.298 671.402 154.382 671.87 154.55C672.338 154.706 672.788 154.964 673.22 155.324L672.428 156.368C672.092 156.128 671.762 155.954 671.438 155.846C671.126 155.726 670.778 155.666 670.394 155.666C669.626 155.666 669.026 155.972 668.594 156.584C668.174 157.196 667.964 158.102 667.964 159.302C667.964 160.502 668.174 161.39 668.594 161.966C669.014 162.53 669.614 162.812 670.394 162.812C670.766 162.812 671.108 162.758 671.42 162.65C671.732 162.53 672.08 162.344 672.464 162.092L673.22 163.172C672.356 163.868 671.39 164.216 670.322 164.216C669.038 164.216 668.024 163.784 667.28 162.92C666.548 162.056 666.182 160.862 666.182 159.338C666.182 158.33 666.35 157.448 666.686 156.692C667.022 155.936 667.496 155.348 668.108 154.928C668.732 154.508 669.47 154.298 670.322 154.298ZM681.87 154.514L681.672 155.864H678.63V164H676.974V155.864H673.842V154.514H681.87ZM686.499 157.574C687.915 157.574 688.941 157.85 689.577 158.402C690.213 158.954 690.531 159.74 690.531 160.76C690.531 161.828 690.171 162.638 689.451 163.19C688.743 163.73 687.861 164 686.805 164H683.583V154.514H685.239V157.574H686.499ZM686.661 162.704C687.333 162.704 687.849 162.554 688.209 162.254C688.581 161.954 688.767 161.456 688.767 160.76C688.767 160.1 688.593 159.614 688.245 159.302C687.909 158.99 687.321 158.834 686.481 158.834H685.239V162.704H686.661Z" fill="#789DCE"/>
<path d="M787.494 19H785.784V12.952C785.784 11.548 785.862 10.066 786.018 8.506L780.996 19H778.8V6.598H780.51V12.646C780.51 14.326 780.432 15.826 780.276 17.146L785.352 6.598H787.494V19ZM793.337 9.298C793.937 9.298 794.495 9.4 795.011 9.604C795.539 9.796 795.959 10.084 796.271 10.468C796.595 10.852 796.757 11.314 796.757 11.854C796.757 12.382 796.601 12.814 796.289 13.15C795.989 13.486 795.509 13.744 794.849 13.924C795.641 14.056 796.241 14.302 796.649 14.662C797.057 15.022 797.261 15.538 797.261 16.21C797.261 17.194 796.877 17.944 796.109 18.46C795.353 18.964 794.387 19.216 793.211 19.216C791.783 19.216 790.565 18.82 789.557 18.028L790.421 17.002C790.841 17.302 791.261 17.524 791.681 17.668C792.113 17.812 792.605 17.884 793.157 17.884C794.705 17.884 795.479 17.32 795.479 16.192C795.479 15.64 795.257 15.256 794.813 15.04C794.381 14.812 793.775 14.698 792.995 14.698H791.735L791.843 13.402H792.815C793.487 13.402 794.027 13.282 794.435 13.042C794.843 12.802 795.047 12.43 795.047 11.926C795.047 11.458 794.873 11.122 794.525 10.918C794.177 10.702 793.721 10.594 793.157 10.594C792.665 10.594 792.227 10.66 791.843 10.792C791.471 10.912 791.093 11.104 790.709 11.368L789.917 10.378C790.397 10.018 790.913 9.748 791.465 9.568C792.017 9.388 792.641 9.298 793.337 9.298ZM804.137 10.126C805.217 10.126 806.075 10.516 806.711 11.296C807.359 12.076 807.683 13.138 807.683 14.482C807.683 15.982 807.305 17.146 806.549 17.974C805.793 18.802 804.779 19.216 803.507 19.216C802.235 19.216 801.215 18.766 800.447 17.866C799.691 16.966 799.313 15.604 799.313 13.78C799.313 12.4 799.415 11.272 799.619 10.396C799.835 9.508 800.201 8.782 800.717 8.218C801.245 7.642 801.983 7.192 802.931 6.868C803.639 6.628 804.203 6.412 804.623 6.22C805.055 6.028 805.493 5.782 805.937 5.482L806.639 6.724C806.219 6.988 805.781 7.234 805.325 7.462C804.881 7.678 804.347 7.888 803.723 8.092C803.123 8.296 802.649 8.53 802.301 8.794C801.953 9.046 801.671 9.418 801.455 9.91C801.251 10.39 801.113 11.05 801.041 11.89C801.377 11.338 801.809 10.906 802.337 10.594C802.865 10.282 803.465 10.126 804.137 10.126ZM803.507 17.884C804.239 17.884 804.821 17.638 805.253 17.146C805.685 16.642 805.901 15.772 805.901 14.536C805.901 13.444 805.721 12.658 805.361 12.178C805.013 11.698 804.503 11.458 803.831 11.458C803.279 11.458 802.763 11.608 802.283 11.908C801.803 12.196 801.407 12.64 801.095 13.24V14.392C801.095 15.508 801.305 16.372 801.725 16.984C802.157 17.584 802.751 17.884 803.507 17.884ZM814.777 9.298C815.989 9.298 816.877 9.73 817.441 10.594C818.005 11.458 818.287 12.676 818.287 14.248C818.287 15.736 817.963 16.936 817.315 17.848C816.667 18.76 815.749 19.216 814.561 19.216C813.505 19.216 812.677 18.856 812.077 18.136V22.636L810.421 22.834V9.514H811.843L811.969 10.792C812.317 10.312 812.737 9.946 813.229 9.694C813.721 9.43 814.237 9.298 814.777 9.298ZM814.165 17.866C815.725 17.866 816.505 16.66 816.505 14.248C816.505 11.824 815.791 10.612 814.363 10.612C813.895 10.612 813.469 10.75 813.085 11.026C812.701 11.302 812.365 11.656 812.077 12.088V16.714C812.317 17.086 812.617 17.374 812.977 17.578C813.337 17.77 813.733 17.866 814.165 17.866ZM827.323 16.786C827.323 17.17 827.389 17.458 827.521 17.65C827.653 17.83 827.851 17.968 828.115 18.064L827.737 19.216C827.245 19.156 826.849 19.018 826.549 18.802C826.249 18.586 826.027 18.25 825.883 17.794C825.247 18.742 824.305 19.216 823.057 19.216C822.121 19.216 821.383 18.952 820.843 18.424C820.303 17.896 820.033 17.206 820.033 16.354C820.033 15.346 820.393 14.572 821.113 14.032C821.845 13.492 822.877 13.222 824.209 13.222H825.667V12.52C825.667 11.848 825.505 11.368 825.181 11.08C824.857 10.792 824.359 10.648 823.687 10.648C822.991 10.648 822.139 10.816 821.131 11.152L820.717 9.946C821.893 9.514 822.985 9.298 823.993 9.298C825.109 9.298 825.943 9.574 826.495 10.126C827.047 10.666 827.323 11.44 827.323 12.448V16.786ZM823.435 17.974C824.383 17.974 825.127 17.482 825.667 16.498V14.32H824.425C822.673 14.32 821.797 14.968 821.797 16.264C821.797 16.828 821.935 17.254 822.211 17.542C822.487 17.83 822.895 17.974 823.435 17.974ZM836.322 19V14.824H832.38V19H830.724V9.514H832.38V13.492H836.322V9.514H837.978V19H836.322ZM848.774 19H847.136V14.716C847.136 13.996 847.16 13.312 847.208 12.664C847.256 12.016 847.298 11.59 847.334 11.386L843.356 19H841.394V9.514H843.032V13.798C843.032 14.434 843.008 15.094 842.96 15.778C842.912 16.45 842.876 16.882 842.852 17.074L846.776 9.514H848.774V19ZM859.351 13.978C859.351 14.254 859.339 14.536 859.315 14.824H853.267C853.339 15.868 853.603 16.636 854.059 17.128C854.515 17.62 855.103 17.866 855.823 17.866C856.279 17.866 856.699 17.8 857.083 17.668C857.467 17.536 857.869 17.326 858.289 17.038L859.009 18.028C858.001 18.82 856.897 19.216 855.697 19.216C854.377 19.216 853.345 18.784 852.601 17.92C851.869 17.056 851.503 15.868 851.503 14.356C851.503 13.372 851.659 12.502 851.971 11.746C852.295 10.978 852.751 10.378 853.339 9.946C853.939 9.514 854.641 9.298 855.445 9.298C856.705 9.298 857.671 9.712 858.343 10.54C859.015 11.368 859.351 12.514 859.351 13.978ZM857.713 13.492C857.713 12.556 857.527 11.842 857.155 11.35C856.783 10.858 856.225 10.612 855.481 10.612C854.125 10.612 853.387 11.608 853.267 13.6H857.713V13.492Z" fill="#003883"/>
<path d="M922.707 32.7071C923.098 32.3166 923.098 31.6834 922.707 31.2929L916.343 24.9289C915.953 24.5384 915.319 24.5384 914.929 24.9289C914.538 25.3195 914.538 25.9526 914.929 26.3431L920.586 32L914.929 37.6569C914.538 38.0474 914.538 38.6805 914.929 39.0711C915.319 39.4616 915.953 39.4616 916.343 39.0711L922.707 32.7071ZM716 33L922 33V31L716 31V33Z" fill="#003883"/>
<path d="M715.293 72.2929C714.902 72.6834 714.902 73.3166 715.293 73.7071L721.657 80.0711C722.047 80.4616 722.681 80.4616 723.071 80.0711C723.462 79.6806 723.462 79.0474 723.071 78.6569L717.414 73L723.071 67.3432C723.462 66.9526 723.462 66.3195 723.071 65.9289C722.681 65.5384 722.047 65.5384 721.657 65.9289L715.293 72.2929ZM922 72L716 72L716 74L922 74L922 72Z" fill="#789DCE"/>
<path d="M777.228 85.382C778.272 85.382 779.184 85.634 779.964 86.138C780.756 86.63 781.368 87.356 781.8 88.316C782.244 89.276 782.466 90.44 782.466 91.808C782.466 93.152 782.244 94.304 781.8 95.264C781.368 96.224 780.756 96.956 779.964 97.46C779.184 97.964 778.272 98.216 777.228 98.216C776.184 98.216 775.266 97.97 774.474 97.478C773.694 96.986 773.082 96.26 772.638 95.3C772.206 94.34 771.99 93.182 771.99 91.826C771.99 90.494 772.206 89.342 772.638 88.37C773.082 87.398 773.7 86.66 774.492 86.156C775.284 85.64 776.196 85.382 777.228 85.382ZM777.228 86.786C776.148 86.786 775.308 87.194 774.708 88.01C774.108 88.826 773.808 90.098 773.808 91.826C773.808 93.542 774.108 94.802 774.708 95.606C775.32 96.41 776.16 96.812 777.228 96.812C779.508 96.812 780.648 95.144 780.648 91.808C780.648 88.46 779.508 86.786 777.228 86.786ZM791.581 88.514L791.383 89.864H788.341V98H786.685V89.864H783.553V88.514H791.581ZM799.81 88.514V98H798.154V94.04C797.806 94.364 797.374 94.622 796.858 94.814C796.354 94.994 795.832 95.084 795.292 95.084C794.392 95.084 793.714 94.844 793.258 94.364C792.802 93.872 792.574 93.176 792.574 92.276V88.514H794.23V92.078C794.23 92.678 794.35 93.116 794.59 93.392C794.842 93.656 795.226 93.788 795.742 93.788C796.162 93.788 796.6 93.692 797.056 93.5C797.524 93.308 797.89 93.062 798.154 92.762V88.514H799.81ZM810.39 92.978C810.39 93.254 810.378 93.536 810.354 93.824H804.306C804.378 94.868 804.642 95.636 805.098 96.128C805.554 96.62 806.142 96.866 806.862 96.866C807.318 96.866 807.738 96.8 808.122 96.668C808.506 96.536 808.908 96.326 809.328 96.038L810.048 97.028C809.04 97.82 807.936 98.216 806.736 98.216C805.416 98.216 804.384 97.784 803.64 96.92C802.908 96.056 802.542 94.868 802.542 93.356C802.542 92.372 802.698 91.502 803.01 90.746C803.334 89.978 803.79 89.378 804.378 88.946C804.978 88.514 805.68 88.298 806.484 88.298C807.744 88.298 808.71 88.712 809.382 89.54C810.054 90.368 810.39 91.514 810.39 92.978ZM808.752 92.492C808.752 91.556 808.566 90.842 808.194 90.35C807.822 89.858 807.264 89.612 806.52 89.612C805.164 89.612 804.426 90.608 804.306 92.6H808.752V92.492ZM818.985 88.514L818.787 89.864H815.745V98H814.089V89.864H810.957V88.514H818.985ZM826.296 98V93.824H822.354V98H820.698V88.514H822.354V92.492H826.296V88.514H827.952V98H826.296ZM834.932 88.298C836.264 88.298 837.296 88.742 838.028 89.63C838.772 90.518 839.144 91.724 839.144 93.248C839.144 94.232 838.976 95.102 838.64 95.858C838.304 96.602 837.818 97.184 837.182 97.604C836.546 98.012 835.79 98.216 834.914 98.216C833.582 98.216 832.544 97.772 831.8 96.884C831.056 95.996 830.684 94.79 830.684 93.266C830.684 92.282 830.852 91.418 831.188 90.674C831.524 89.918 832.01 89.336 832.646 88.928C833.282 88.508 834.044 88.298 834.932 88.298ZM834.932 89.63C833.288 89.63 832.466 90.842 832.466 93.266C832.466 95.678 833.282 96.884 834.914 96.884C836.546 96.884 837.362 95.672 837.362 93.248C837.362 90.836 836.552 89.63 834.932 89.63ZM845.336 88.298C845.9 88.298 846.416 88.382 846.884 88.55C847.352 88.706 847.802 88.964 848.234 89.324L847.442 90.368C847.106 90.128 846.776 89.954 846.452 89.846C846.14 89.726 845.792 89.666 845.408 89.666C844.64 89.666 844.04 89.972 843.608 90.584C843.188 91.196 842.978 92.102 842.978 93.302C842.978 94.502 843.188 95.39 843.608 95.966C844.028 96.53 844.628 96.812 845.408 96.812C845.78 96.812 846.122 96.758 846.434 96.65C846.746 96.53 847.094 96.344 847.478 96.092L848.234 97.172C847.37 97.868 846.404 98.216 845.336 98.216C844.052 98.216 843.038 97.784 842.294 96.92C841.562 96.056 841.196 94.862 841.196 93.338C841.196 92.33 841.364 91.448 841.7 90.692C842.036 89.936 842.51 89.348 843.122 88.928C843.746 88.508 844.484 88.298 845.336 88.298ZM856.884 88.514L856.686 89.864H853.644V98H851.988V89.864H848.856V88.514H856.884ZM861.513 91.574C862.929 91.574 863.955 91.85 864.591 92.402C865.227 92.954 865.545 93.74 865.545 94.76C865.545 95.828 865.185 96.638 864.465 97.19C863.757 97.73 862.875 98 861.819 98H858.597V88.514H860.253V91.574H861.513ZM861.675 96.704C862.347 96.704 862.863 96.554 863.223 96.254C863.595 95.954 863.781 95.456 863.781 94.76C863.781 94.1 863.607 93.614 863.259 93.302C862.923 92.99 862.335 92.834 861.495 92.834H860.253V96.704H861.675Z" fill="#789DCE"/>
<path d="M715.293 369.293C714.902 369.683 714.902 370.317 715.293 370.707L721.657 377.071C722.047 377.462 722.681 377.462 723.071 377.071C723.462 376.681 723.462 376.047 723.071 375.657L717.414 370L723.071 364.343C723.462 363.953 723.462 363.319 723.071 362.929C722.681 362.538 722.047 362.538 721.657 362.929L715.293 369.293ZM922 369L716 369L716 371L922 371L922 369Z" fill="#789DCE"/>
<path d="M759.757 388.7C759.757 390.476 759.241 391.826 758.209 392.75C757.189 393.662 755.761 394.142 753.925 394.19V395.594H752.269V394.19C750.361 394.106 748.909 393.602 747.913 392.678C746.929 391.742 746.437 390.428 746.437 388.736C746.437 386.96 746.947 385.616 747.967 384.704C748.999 383.78 750.433 383.294 752.269 383.246V381.986H753.925V383.246C755.833 383.33 757.279 383.84 758.263 384.776C759.259 385.7 759.757 387.008 759.757 388.7ZM748.201 388.736C748.201 390.116 748.537 391.142 749.209 391.814C749.893 392.486 750.925 392.852 752.305 392.912V384.506C750.901 384.59 749.863 384.962 749.191 385.622C748.531 386.282 748.201 387.32 748.201 388.736ZM753.889 392.93C755.293 392.846 756.325 392.474 756.985 391.814C757.657 391.154 757.993 390.116 757.993 388.7C757.993 387.32 757.651 386.294 756.967 385.622C756.295 384.95 755.269 384.584 753.889 384.524V392.93ZM765.99 395.054C765.618 396.158 765.096 397.028 764.424 397.664C763.764 398.312 762.816 398.702 761.58 398.834L761.4 397.538C762.024 397.43 762.522 397.274 762.894 397.07C763.266 396.866 763.56 396.602 763.776 396.278C764.004 395.966 764.214 395.54 764.406 395H763.848L760.662 385.514H762.426L764.964 393.794L767.448 385.514H769.158L765.99 395.054ZM776.65 395V390.824H772.708V395H771.052V385.514H772.708V389.492H776.65V385.514H778.306V395H776.65ZM788.832 385.514L785.952 389.906L789.174 395H787.212L784.584 390.626H783.378V395H781.722V385.514H783.378V389.33H784.62L787.014 385.514H788.832ZM798.166 393.668H799.606V397.7H798.256L797.986 395H791.056V385.514H792.712V393.65H796.51V385.514H798.166V393.668ZM808.965 395H807.327V390.716C807.327 389.996 807.351 389.312 807.399 388.664C807.447 388.016 807.489 387.59 807.525 387.386L803.547 395H801.585V385.514H803.223V389.798C803.223 390.434 803.199 391.094 803.151 391.778C803.103 392.45 803.067 392.882 803.043 393.074L806.967 385.514H808.965V395ZM815.942 385.298C817.274 385.298 818.306 385.742 819.038 386.63C819.782 387.518 820.154 388.724 820.154 390.248C820.154 391.232 819.986 392.102 819.65 392.858C819.314 393.602 818.828 394.184 818.192 394.604C817.556 395.012 816.8 395.216 815.924 395.216C814.592 395.216 813.554 394.772 812.81 393.884C812.066 392.996 811.694 391.79 811.694 390.266C811.694 389.282 811.862 388.418 812.198 387.674C812.534 386.918 813.02 386.336 813.656 385.928C814.292 385.508 815.054 385.298 815.942 385.298ZM815.942 386.63C814.298 386.63 813.476 387.842 813.476 390.266C813.476 392.678 814.292 393.884 815.924 393.884C817.556 393.884 818.372 392.672 818.372 390.248C818.372 387.836 817.562 386.63 815.942 386.63ZM828.488 395V390.824H824.546V395H822.89V385.514H824.546V389.492H828.488V385.514H830.144V395H828.488ZM839.95 392.786C839.95 393.17 840.016 393.458 840.148 393.65C840.28 393.83 840.478 393.968 840.742 394.064L840.364 395.216C839.872 395.156 839.476 395.018 839.176 394.802C838.876 394.586 838.654 394.25 838.51 393.794C837.874 394.742 836.932 395.216 835.684 395.216C834.748 395.216 834.01 394.952 833.47 394.424C832.93 393.896 832.66 393.206 832.66 392.354C832.66 391.346 833.02 390.572 833.74 390.032C834.472 389.492 835.504 389.222 836.836 389.222H838.294V388.52C838.294 387.848 838.132 387.368 837.808 387.08C837.484 386.792 836.986 386.648 836.314 386.648C835.618 386.648 834.766 386.816 833.758 387.152L833.344 385.946C834.52 385.514 835.612 385.298 836.62 385.298C837.736 385.298 838.57 385.574 839.122 386.126C839.674 386.666 839.95 387.44 839.95 388.448V392.786ZM836.062 393.974C837.01 393.974 837.754 393.482 838.294 392.498V390.32H837.052C835.3 390.32 834.424 390.968 834.424 392.264C834.424 392.828 834.562 393.254 834.838 393.542C835.114 393.83 835.522 393.974 836.062 393.974ZM850.299 385.514V395H848.643V386.864H845.709L845.439 390.032C845.331 391.316 845.193 392.276 845.025 392.912C844.869 393.548 844.617 394.04 844.269 394.388C843.933 394.724 843.417 395 842.721 395.216L842.307 393.902C842.715 393.758 843.003 393.572 843.171 393.344C843.339 393.116 843.465 392.768 843.549 392.3C843.633 391.832 843.723 391.016 843.819 389.852L844.197 385.514H850.299ZM856.638 388.574C858.054 388.574 859.08 388.85 859.716 389.402C860.352 389.954 860.67 390.74 860.67 391.76C860.67 392.828 860.31 393.638 859.59 394.19C858.882 394.73 858 395 856.944 395H853.722V385.514H855.378V388.574H856.638ZM856.8 393.704C857.472 393.704 857.988 393.554 858.348 393.254C858.72 392.954 858.906 392.456 858.906 391.76C858.906 391.1 858.732 390.614 858.384 390.302C858.048 389.99 857.46 389.834 856.62 389.834H855.378V393.704H856.8ZM868.601 395V390.824H864.659V395H863.003V385.514H864.659V389.492H868.601V385.514H870.257V395H868.601ZM877.237 385.298C878.569 385.298 879.601 385.742 880.333 386.63C881.077 387.518 881.449 388.724 881.449 390.248C881.449 391.232 881.281 392.102 880.945 392.858C880.609 393.602 880.123 394.184 879.487 394.604C878.851 395.012 878.095 395.216 877.219 395.216C875.887 395.216 874.849 394.772 874.105 393.884C873.361 392.996 872.989 391.79 872.989 390.266C872.989 389.282 873.157 388.418 873.493 387.674C873.829 386.918 874.315 386.336 874.951 385.928C875.587 385.508 876.349 385.298 877.237 385.298ZM877.237 386.63C875.593 386.63 874.771 387.842 874.771 390.266C874.771 392.678 875.587 393.884 877.219 393.884C878.851 393.884 879.667 392.672 879.667 390.248C879.667 387.836 878.857 386.63 877.237 386.63ZM891.349 389.978C891.349 390.254 891.337 390.536 891.313 390.824H885.265C885.337 391.868 885.601 392.636 886.057 393.128C886.513 393.62 887.101 393.866 887.821 393.866C888.277 393.866 888.697 393.8 889.081 393.668C889.465 393.536 889.867 393.326 890.287 393.038L891.007 394.028C889.999 394.82 888.895 395.216 887.695 395.216C886.375 395.216 885.343 394.784 884.599 393.92C883.867 393.056 883.501 391.868 883.501 390.356C883.501 389.372 883.657 388.502 883.969 387.746C884.293 386.978 884.749 386.378 885.337 385.946C885.937 385.514 886.639 385.298 887.443 385.298C888.703 385.298 889.669 385.712 890.341 386.54C891.013 387.368 891.349 388.514 891.349 389.978ZM889.711 389.492C889.711 388.556 889.525 387.842 889.153 387.35C888.781 386.858 888.223 386.612 887.479 386.612C886.123 386.612 885.385 387.608 885.265 389.6H889.711V389.492ZM774.609 421V412.864H770.721V421H769.065V411.514H776.265V421H774.609ZM783.247 411.298C784.579 411.298 785.611 411.742 786.343 412.63C787.087 413.518 787.459 414.724 787.459 416.248C787.459 417.232 787.291 418.102 786.955 418.858C786.619 419.602 786.133 420.184 785.497 420.604C784.861 421.012 784.105 421.216 783.229 421.216C781.897 421.216 780.859 420.772 780.115 419.884C779.371 418.996 778.999 417.79 778.999 416.266C778.999 415.282 779.167 414.418 779.503 413.674C779.839 412.918 780.325 412.336 780.961 411.928C781.597 411.508 782.359 411.298 783.247 411.298ZM783.247 412.63C781.603 412.63 780.781 413.842 780.781 416.266C780.781 418.678 781.597 419.884 783.229 419.884C784.861 419.884 785.677 418.672 785.677 416.248C785.677 413.836 784.867 412.63 783.247 412.63ZM797.633 419.668V423.7H796.283L796.013 421H789.929L789.659 423.7H788.309V419.668H788.975C789.263 419.476 789.491 419.26 789.659 419.02C789.827 418.768 789.977 418.336 790.109 417.724C790.253 417.112 790.367 416.218 790.451 415.042L790.703 411.514H796.643V419.668H797.633ZM794.987 412.828H792.197L792.053 414.826C791.969 415.942 791.873 416.8 791.765 417.4C791.657 418 791.501 418.462 791.297 418.786C791.105 419.11 790.823 419.404 790.451 419.668H794.987V412.828ZM806.396 411.514V421H804.74V417.04C804.392 417.364 803.96 417.622 803.444 417.814C802.94 417.994 802.418 418.084 801.878 418.084C800.978 418.084 800.3 417.844 799.844 417.364C799.388 416.872 799.16 416.176 799.16 415.276V411.514H800.816V415.078C800.816 415.678 800.936 416.116 801.176 416.392C801.428 416.656 801.812 416.788 802.328 416.788C802.748 416.788 803.186 416.692 803.642 416.5C804.11 416.308 804.476 416.062 804.74 415.762V411.514H806.396ZM817.192 421H815.554V416.716C815.554 415.996 815.578 415.312 815.626 414.664C815.674 414.016 815.716 413.59 815.752 413.386L811.774 421H809.812V411.514H811.45V415.798C811.45 416.434 811.426 417.094 811.378 417.778C811.33 418.45 811.294 418.882 811.27 419.074L815.194 411.514H817.192V421ZM826.203 421V416.824H822.261V421H820.605V411.514H822.261V415.492H826.203V411.514H827.859V421H826.203ZM838.438 415.978C838.438 416.254 838.426 416.536 838.402 416.824H832.354C832.426 417.868 832.69 418.636 833.146 419.128C833.602 419.62 834.19 419.866 834.91 419.866C835.366 419.866 835.786 419.8 836.17 419.668C836.554 419.536 836.956 419.326 837.376 419.038L838.096 420.028C837.088 420.82 835.984 421.216 834.784 421.216C833.464 421.216 832.432 420.784 831.688 419.92C830.956 419.056 830.59 417.868 830.59 416.356C830.59 415.372 830.746 414.502 831.058 413.746C831.382 412.978 831.838 412.378 832.426 411.946C833.026 411.514 833.728 411.298 834.532 411.298C835.792 411.298 836.758 411.712 837.43 412.54C838.102 413.368 838.438 414.514 838.438 415.978ZM836.8 415.492C836.8 414.556 836.614 413.842 836.242 413.35C835.87 412.858 835.312 412.612 834.568 412.612C833.212 412.612 832.474 413.608 832.354 415.6H836.8V415.492ZM846.681 421V416.824H842.739V421H841.083V411.514H842.739V415.492H846.681V411.514H848.337V421H846.681ZM859.133 421H857.495V416.716C857.495 415.996 857.519 415.312 857.567 414.664C857.615 414.016 857.657 413.59 857.693 413.386L853.715 421H851.753V411.514H853.391V415.798C853.391 416.434 853.367 417.094 853.319 417.778C853.271 418.45 853.235 418.882 853.211 419.074L857.135 411.514H859.133V421ZM869.71 415.978C869.71 416.254 869.698 416.536 869.674 416.824H863.626C863.698 417.868 863.962 418.636 864.418 419.128C864.874 419.62 865.462 419.866 866.182 419.866C866.638 419.866 867.058 419.8 867.442 419.668C867.826 419.536 868.228 419.326 868.648 419.038L869.368 420.028C868.36 420.82 867.256 421.216 866.056 421.216C864.736 421.216 863.704 420.784 862.96 419.92C862.228 419.056 861.862 417.868 861.862 416.356C861.862 415.372 862.018 414.502 862.33 413.746C862.654 412.978 863.11 412.378 863.698 411.946C864.298 411.514 865 411.298 865.804 411.298C867.064 411.298 868.03 411.712 868.702 412.54C869.374 413.368 869.71 414.514 869.71 415.978ZM868.072 415.492C868.072 414.556 867.886 413.842 867.514 413.35C867.142 412.858 866.584 412.612 865.84 412.612C864.484 412.612 863.746 413.608 863.626 415.6H868.072V415.492Z" fill="#789DCE"/>
<path d="M1328 579.339L1324.89 580.275L1324.89 584.973L1328 585.909L1328 587.637L1315.6 583.659L1315.6 581.499L1328 577.539L1328 579.339ZM1323.5 584.559L1323.5 580.689L1317.02 582.615L1323.5 584.559ZM1326.67 568.103L1330.7 568.103L1330.7 569.453L1328 569.723L1328 575.807L1330.7 576.077L1330.7 577.427L1326.67 577.427L1326.67 576.761C1326.48 576.473 1326.26 576.245 1326.02 576.077C1325.77 575.909 1325.34 575.759 1324.72 575.627C1324.11 575.483 1323.22 575.369 1322.04 575.285L1318.51 575.033L1318.51 569.093L1326.67 569.093L1326.67 568.103ZM1319.83 570.749L1319.83 573.539L1321.83 573.683C1322.94 573.767 1323.8 573.863 1324.4 573.971C1325 574.079 1325.46 574.235 1325.79 574.439C1326.11 574.631 1326.4 574.913 1326.67 575.285L1326.67 570.749L1319.83 570.749ZM1328 556.321L1328 557.941L1323.52 558.373C1323.05 558.421 1322.53 558.451 1321.97 558.463C1321.39 558.475 1320.78 558.481 1320.12 558.481L1326.96 560.641L1326.96 562.207L1320.13 564.223C1321.72 564.223 1322.84 564.247 1323.5 564.295L1328 564.637L1328 566.239L1318.51 565.393L1318.51 563.251L1325.3 561.397L1318.51 559.363L1318.51 557.185L1328 556.321ZM1328 546.153L1328 547.791L1323.72 547.791C1323 547.791 1322.31 547.767 1321.66 547.719C1321.02 547.671 1320.59 547.629 1320.39 547.593L1328 551.571L1328 553.533L1318.51 553.533L1318.51 551.895L1322.8 551.895C1323.43 551.895 1324.09 551.919 1324.78 551.967C1325.45 552.015 1325.88 552.051 1326.07 552.075L1318.51 548.151L1318.51 546.153L1328 546.153ZM1328 537.142L1323.82 537.142L1323.82 541.084L1328 541.084L1328 542.74L1318.51 542.74L1318.51 541.084L1322.49 541.084L1322.49 537.142L1318.51 537.142L1318.51 535.486L1328 535.486L1328 537.142ZM1328 524.69L1328 526.328L1323.72 526.328C1323 526.328 1322.31 526.304 1321.66 526.256C1321.02 526.208 1320.59 526.166 1320.39 526.13L1328 530.108L1328 532.07L1318.51 532.07L1318.51 530.432L1322.8 530.432C1323.43 530.432 1324.09 530.456 1324.78 530.504C1325.45 530.552 1325.88 530.588 1326.07 530.612L1318.51 526.688L1318.51 524.69L1328 524.69ZM1318.3 517.821C1318.3 517.257 1318.38 516.741 1318.55 516.273C1318.71 515.805 1318.96 515.355 1319.32 514.923L1320.37 515.715C1320.13 516.051 1319.95 516.381 1319.85 516.705C1319.73 517.017 1319.67 517.365 1319.67 517.749C1319.67 518.517 1319.97 519.117 1320.58 519.549C1321.2 519.969 1322.1 520.179 1323.3 520.179C1324.5 520.179 1325.39 519.969 1325.97 519.549C1326.53 519.129 1326.81 518.529 1326.81 517.749C1326.81 517.377 1326.76 517.035 1326.65 516.723C1326.53 516.411 1326.34 516.063 1326.09 515.679L1327.17 514.923C1327.87 515.787 1328.22 516.753 1328.22 517.821C1328.22 519.105 1327.78 520.119 1326.92 520.863C1326.06 521.595 1324.86 521.961 1323.34 521.961C1322.33 521.961 1321.45 521.793 1320.69 521.457C1319.94 521.121 1319.35 520.647 1318.93 520.035C1318.51 519.411 1318.3 518.673 1318.3 517.821ZM1318.51 506.274L1319.86 506.472L1319.86 509.514L1328 509.514L1328 511.17L1319.86 511.17L1319.86 514.302L1318.51 514.302L1318.51 506.274ZM1318.3 500.205C1318.3 498.993 1318.73 498.105 1319.59 497.541C1320.46 496.977 1321.68 496.695 1323.25 496.695C1324.74 496.695 1325.94 497.019 1326.85 497.667C1327.76 498.315 1328.22 499.233 1328.22 500.421C1328.22 501.477 1327.86 502.305 1327.14 502.905L1331.64 502.905L1331.83 504.561L1318.51 504.561L1318.51 503.139L1319.79 503.013C1319.31 502.665 1318.95 502.245 1318.69 501.753C1318.43 501.261 1318.3 500.745 1318.3 500.205ZM1326.87 500.817C1326.87 499.257 1325.66 498.477 1323.25 498.477C1320.82 498.477 1319.61 499.191 1319.61 500.619C1319.61 501.087 1319.75 501.513 1320.03 501.897C1320.3 502.281 1320.66 502.617 1321.09 502.905L1325.71 502.905C1326.09 502.665 1326.37 502.365 1326.58 502.005C1326.77 501.645 1326.87 501.249 1326.87 500.817ZM1325.79 487.659C1326.17 487.659 1326.46 487.593 1326.65 487.461C1326.83 487.329 1326.97 487.131 1327.06 486.867L1328.22 487.245C1328.16 487.737 1328.02 488.133 1327.8 488.433C1327.59 488.733 1327.25 488.955 1326.79 489.099C1327.74 489.735 1328.22 490.677 1328.22 491.925C1328.22 492.861 1327.95 493.599 1327.42 494.139C1326.9 494.679 1326.21 494.949 1325.35 494.949C1324.35 494.949 1323.57 494.589 1323.03 493.869C1322.49 493.137 1322.22 492.105 1322.22 490.773L1322.22 489.315L1321.52 489.315C1320.85 489.315 1320.37 489.477 1320.08 489.801C1319.79 490.125 1319.65 490.623 1319.65 491.295C1319.65 491.991 1319.82 492.843 1320.15 493.851L1318.95 494.265C1318.51 493.089 1318.3 491.997 1318.3 490.989C1318.3 489.873 1318.57 489.039 1319.13 488.487C1319.67 487.935 1320.44 487.659 1321.45 487.659L1325.79 487.659ZM1326.97 491.547C1326.97 490.599 1326.48 489.855 1325.5 489.315L1323.32 489.315L1323.32 490.557C1323.32 492.309 1323.97 493.185 1325.26 493.185C1325.83 493.185 1326.25 493.047 1326.54 492.771C1326.83 492.495 1326.97 492.087 1326.97 491.547ZM1318.51 478.201L1319.86 478.399L1319.86 481.441L1328 481.441L1328 483.097L1319.86 483.097L1319.86 486.229L1318.51 486.229L1318.51 478.201ZM1328 469.108L1328 470.746L1323.72 470.746C1323 470.746 1322.31 470.722 1321.66 470.674C1321.02 470.626 1320.59 470.584 1320.39 470.548L1328 474.526L1328 476.488L1318.51 476.488L1318.51 474.85L1322.8 474.85C1323.43 474.85 1324.09 474.874 1324.78 474.922C1325.45 474.97 1325.88 475.006 1326.07 475.03L1318.51 471.106L1318.51 469.108L1328 469.108ZM1322.85 460.691C1323.01 459.083 1323.75 458.279 1325.08 458.279C1326.08 458.279 1326.82 458.645 1327.3 459.377C1327.77 460.097 1328 461.063 1328 462.275L1328 465.695L1318.64 465.695C1318.41 464.579 1318.3 463.541 1318.3 462.581C1318.3 461.405 1318.52 460.475 1318.96 459.791C1319.41 459.107 1320.04 458.765 1320.87 458.765C1321.41 458.765 1321.85 458.927 1322.19 459.251C1322.52 459.575 1322.74 460.055 1322.85 460.691ZM1319.58 462.563C1319.58 463.067 1319.61 463.559 1319.68 464.039L1322.37 464.039L1322.37 462.257C1322.37 461.681 1322.26 461.237 1322.04 460.925C1321.83 460.613 1321.46 460.457 1320.94 460.457C1320.46 460.457 1320.12 460.631 1319.9 460.979C1319.68 461.327 1319.58 461.855 1319.58 462.563ZM1326.7 462.275C1326.7 461.567 1326.58 461.015 1326.34 460.619C1326.1 460.223 1325.67 460.025 1325.05 460.025C1324.53 460.025 1324.16 460.193 1323.93 460.529C1323.7 460.865 1323.59 461.435 1323.59 462.239L1323.59 464.039L1326.7 464.039L1326.7 462.275ZM1328 449.937L1323.82 449.937L1323.82 453.879L1328 453.879L1328 455.535L1318.51 455.535L1318.51 453.879L1322.49 453.879L1322.49 449.937L1318.51 449.937L1318.51 448.281L1328 448.281L1328 449.937ZM1318.3 441.301C1318.3 439.969 1318.74 438.937 1319.63 438.205C1320.52 437.461 1321.72 437.089 1323.25 437.089C1324.23 437.089 1325.1 437.257 1325.86 437.593C1326.6 437.929 1327.18 438.415 1327.6 439.051C1328.01 439.687 1328.22 440.443 1328.22 441.319C1328.22 442.651 1327.77 443.689 1326.88 444.433C1326 445.177 1324.79 445.549 1323.27 445.549C1322.28 445.549 1321.42 445.381 1320.67 445.045C1319.92 444.709 1319.34 444.223 1318.93 443.587C1318.51 442.951 1318.3 442.189 1318.3 441.301ZM1319.63 441.301C1319.63 442.945 1320.84 443.767 1323.27 443.767C1325.68 443.767 1326.88 442.951 1326.88 441.319C1326.88 439.687 1325.67 438.871 1323.25 438.871C1320.84 438.871 1319.63 439.681 1319.63 441.301ZM1322.98 427.189C1323.25 427.189 1323.54 427.201 1323.82 427.225L1323.82 433.273C1324.87 433.201 1325.64 432.937 1326.13 432.481C1326.62 432.025 1326.87 431.437 1326.87 430.717C1326.87 430.261 1326.8 429.841 1326.67 429.457C1326.54 429.073 1326.33 428.671 1326.04 428.251L1327.03 427.531C1327.82 428.539 1328.22 429.643 1328.22 430.843C1328.22 432.163 1327.78 433.195 1326.92 433.939C1326.06 434.671 1324.87 435.037 1323.36 435.037C1322.37 435.037 1321.5 434.881 1320.75 434.569C1319.98 434.245 1319.38 433.789 1318.95 433.201C1318.51 432.601 1318.3 431.899 1318.3 431.095C1318.3 429.835 1318.71 428.869 1319.54 428.197C1320.37 427.525 1321.51 427.189 1322.98 427.189ZM1322.49 428.827C1321.56 428.827 1320.84 429.013 1320.35 429.385C1319.86 429.757 1319.61 430.315 1319.61 431.059C1319.61 432.415 1320.61 433.153 1322.6 433.273L1322.6 428.827L1322.49 428.827ZM1354 551.391L1345.86 551.391L1345.86 555.279L1354 555.279L1354 556.935L1344.51 556.935L1344.51 549.735L1354 549.735L1354 551.391ZM1344.3 542.753C1344.3 541.421 1344.74 540.389 1345.63 539.657C1346.52 538.913 1347.72 538.541 1349.25 538.541C1350.23 538.541 1351.1 538.709 1351.86 539.045C1352.6 539.381 1353.18 539.867 1353.6 540.503C1354.01 541.139 1354.22 541.895 1354.22 542.771C1354.22 544.103 1353.77 545.141 1352.88 545.885C1352 546.629 1350.79 547.001 1349.27 547.001C1348.28 547.001 1347.42 546.833 1346.67 546.497C1345.92 546.161 1345.34 545.675 1344.93 545.039C1344.51 544.403 1344.3 543.641 1344.3 542.753ZM1345.63 542.753C1345.63 544.397 1346.84 545.219 1349.27 545.219C1351.68 545.219 1352.88 544.403 1352.88 542.771C1352.88 541.139 1351.67 540.323 1349.25 540.323C1346.84 540.323 1345.63 541.133 1345.63 542.753ZM1352.67 528.367L1356.7 528.367L1356.7 529.717L1354 529.987L1354 536.071L1356.7 536.341L1356.7 537.691L1352.67 537.691L1352.67 537.025C1352.48 536.737 1352.26 536.509 1352.02 536.341C1351.77 536.173 1351.34 536.023 1350.72 535.891C1350.11 535.747 1349.22 535.633 1348.04 535.549L1344.51 535.297L1344.51 529.357L1352.67 529.357L1352.67 528.367ZM1345.83 531.013L1345.83 533.803L1347.83 533.947C1348.94 534.031 1349.8 534.127 1350.4 534.235C1351 534.343 1351.46 534.499 1351.79 534.703C1352.11 534.895 1352.4 535.177 1352.67 535.549L1352.67 531.013L1345.83 531.013ZM1344.51 519.604L1354 519.604L1354 521.26L1350.04 521.26C1350.36 521.608 1350.62 522.04 1350.81 522.556C1350.99 523.06 1351.08 523.582 1351.08 524.122C1351.08 525.022 1350.84 525.7 1350.36 526.156C1349.87 526.612 1349.18 526.84 1348.28 526.84L1344.51 526.84L1344.51 525.184L1348.08 525.184C1348.68 525.184 1349.12 525.064 1349.39 524.824C1349.66 524.572 1349.79 524.188 1349.79 523.672C1349.79 523.252 1349.69 522.814 1349.5 522.358C1349.31 521.89 1349.06 521.524 1348.76 521.26L1344.51 521.26L1344.51 519.604ZM1354 508.808L1354 510.446L1349.72 510.446C1349 510.446 1348.31 510.422 1347.66 510.374C1347.02 510.326 1346.59 510.284 1346.39 510.248L1354 514.226L1354 516.188L1344.51 516.188L1344.51 514.55L1348.8 514.55C1349.43 514.55 1350.09 514.574 1350.78 514.622C1351.45 514.67 1351.88 514.706 1352.07 514.73L1344.51 510.806L1344.51 508.808L1354 508.808ZM1354 499.797L1349.82 499.797L1349.82 503.739L1354 503.739L1354 505.395L1344.51 505.395L1344.51 503.739L1348.49 503.739L1348.49 499.797L1344.51 499.797L1344.51 498.141L1354 498.141L1354 499.797ZM1348.98 487.562C1349.25 487.562 1349.54 487.574 1349.82 487.598L1349.82 493.646C1350.87 493.574 1351.64 493.31 1352.13 492.854C1352.62 492.398 1352.87 491.81 1352.87 491.09C1352.87 490.634 1352.8 490.214 1352.67 489.83C1352.54 489.446 1352.33 489.044 1352.04 488.624L1353.03 487.904C1353.82 488.912 1354.22 490.016 1354.22 491.216C1354.22 492.536 1353.78 493.568 1352.92 494.312C1352.06 495.044 1350.87 495.41 1349.36 495.41C1348.37 495.41 1347.5 495.254 1346.75 494.942C1345.98 494.618 1345.38 494.162 1344.95 493.574C1344.51 492.974 1344.3 492.272 1344.3 491.468C1344.3 490.208 1344.71 489.242 1345.54 488.57C1346.37 487.898 1347.51 487.562 1348.98 487.562ZM1348.49 489.2C1347.56 489.2 1346.84 489.386 1346.35 489.758C1345.86 490.13 1345.61 490.688 1345.61 491.432C1345.61 492.788 1346.61 493.526 1348.6 493.646L1348.6 489.2L1348.49 489.2ZM1354 479.319L1349.82 479.319L1349.82 483.261L1354 483.261L1354 484.917L1344.51 484.917L1344.51 483.261L1348.49 483.261L1348.49 479.319L1344.51 479.319L1344.51 477.663L1354 477.663L1354 479.319ZM1354 466.867L1354 468.505L1349.72 468.505C1349 468.505 1348.31 468.481 1347.66 468.433C1347.02 468.385 1346.59 468.343 1346.39 468.307L1354 472.285L1354 474.247L1344.51 474.247L1344.51 472.609L1348.8 472.609C1349.43 472.609 1350.09 472.633 1350.78 472.681C1351.45 472.729 1351.88 472.765 1352.07 472.789L1344.51 468.865L1344.51 466.867L1354 466.867ZM1348.98 456.29C1349.25 456.29 1349.54 456.302 1349.82 456.326L1349.82 462.374C1350.87 462.302 1351.64 462.038 1352.13 461.582C1352.62 461.126 1352.87 460.538 1352.87 459.818C1352.87 459.362 1352.8 458.942 1352.67 458.558C1352.54 458.174 1352.33 457.772 1352.04 457.352L1353.03 456.632C1353.82 457.64 1354.22 458.744 1354.22 459.944C1354.22 461.264 1353.78 462.296 1352.92 463.04C1352.06 463.772 1350.87 464.138 1349.36 464.138C1348.37 464.138 1347.5 463.982 1346.75 463.67C1345.98 463.346 1345.38 462.89 1344.95 462.302C1344.51 461.702 1344.3 461 1344.3 460.196C1344.3 458.936 1344.71 457.97 1345.54 457.298C1346.37 456.626 1347.51 456.29 1348.98 456.29ZM1348.49 457.928C1347.56 457.928 1346.84 458.114 1346.35 458.486C1345.86 458.858 1345.61 459.416 1345.61 460.16C1345.61 461.516 1346.61 462.254 1348.6 462.374L1348.6 457.928L1348.49 457.928Z" fill="#789DCE"/>
<path d="M185.494 148H183.784V141.952C183.784 140.548 183.862 139.066 184.018 137.506L178.996 148H176.8V135.598H178.51V141.646C178.51 143.326 178.432 144.826 178.276 146.146L183.352 135.598H185.494V148ZM191.337 138.298C191.937 138.298 192.495 138.4 193.011 138.604C193.539 138.796 193.959 139.084 194.271 139.468C194.595 139.852 194.757 140.314 194.757 140.854C194.757 141.382 194.601 141.814 194.289 142.15C193.989 142.486 193.509 142.744 192.849 142.924C193.641 143.056 194.241 143.302 194.649 143.662C195.057 144.022 195.261 144.538 195.261 145.21C195.261 146.194 194.877 146.944 194.109 147.46C193.353 147.964 192.387 148.216 191.211 148.216C189.783 148.216 188.565 147.82 187.557 147.028L188.421 146.002C188.841 146.302 189.261 146.524 189.681 146.668C190.113 146.812 190.605 146.884 191.157 146.884C192.705 146.884 193.479 146.32 193.479 145.192C193.479 144.64 193.257 144.256 192.813 144.04C192.381 143.812 191.775 143.698 190.995 143.698H189.735L189.843 142.402H190.815C191.487 142.402 192.027 142.282 192.435 142.042C192.843 141.802 193.047 141.43 193.047 140.926C193.047 140.458 192.873 140.122 192.525 139.918C192.177 139.702 191.721 139.594 191.157 139.594C190.665 139.594 190.227 139.66 189.843 139.792C189.471 139.912 189.093 140.104 188.709 140.368L187.917 139.378C188.397 139.018 188.913 138.748 189.465 138.568C190.017 138.388 190.641 138.298 191.337 138.298ZM202.137 139.126C203.217 139.126 204.075 139.516 204.711 140.296C205.359 141.076 205.683 142.138 205.683 143.482C205.683 144.982 205.305 146.146 204.549 146.974C203.793 147.802 202.779 148.216 201.507 148.216C200.235 148.216 199.215 147.766 198.447 146.866C197.691 145.966 197.313 144.604 197.313 142.78C197.313 141.4 197.415 140.272 197.619 139.396C197.835 138.508 198.201 137.782 198.717 137.218C199.245 136.642 199.983 136.192 200.931 135.868C201.639 135.628 202.203 135.412 202.623 135.22C203.055 135.028 203.493 134.782 203.937 134.482L204.639 135.724C204.219 135.988 203.781 136.234 203.325 136.462C202.881 136.678 202.347 136.888 201.723 137.092C201.123 137.296 200.649 137.53 200.301 137.794C199.953 138.046 199.671 138.418 199.455 138.91C199.251 139.39 199.113 140.05 199.041 140.89C199.377 140.338 199.809 139.906 200.337 139.594C200.865 139.282 201.465 139.126 202.137 139.126ZM201.507 146.884C202.239 146.884 202.821 146.638 203.253 146.146C203.685 145.642 203.901 144.772 203.901 143.536C203.901 142.444 203.721 141.658 203.361 141.178C203.013 140.698 202.503 140.458 201.831 140.458C201.279 140.458 200.763 140.608 200.283 140.908C199.803 141.196 199.407 141.64 199.095 142.24V143.392C199.095 144.508 199.305 145.372 199.725 145.984C200.157 146.584 200.751 146.884 201.507 146.884ZM212.777 138.298C213.989 138.298 214.877 138.73 215.441 139.594C216.005 140.458 216.287 141.676 216.287 143.248C216.287 144.736 215.963 145.936 215.315 146.848C214.667 147.76 213.749 148.216 212.561 148.216C211.505 148.216 210.677 147.856 210.077 147.136V151.636L208.421 151.834V138.514H209.843L209.969 139.792C210.317 139.312 210.737 138.946 211.229 138.694C211.721 138.43 212.237 138.298 212.777 138.298ZM212.165 146.866C213.725 146.866 214.505 145.66 214.505 143.248C214.505 140.824 213.791 139.612 212.363 139.612C211.895 139.612 211.469 139.75 211.085 140.026C210.701 140.302 210.365 140.656 210.077 141.088V145.714C210.317 146.086 210.617 146.374 210.977 146.578C211.337 146.77 211.733 146.866 212.165 146.866ZM225.323 145.786C225.323 146.17 225.389 146.458 225.521 146.65C225.653 146.83 225.851 146.968 226.115 147.064L225.737 148.216C225.245 148.156 224.849 148.018 224.549 147.802C224.249 147.586 224.027 147.25 223.883 146.794C223.247 147.742 222.305 148.216 221.057 148.216C220.121 148.216 219.383 147.952 218.843 147.424C218.303 146.896 218.033 146.206 218.033 145.354C218.033 144.346 218.393 143.572 219.113 143.032C219.845 142.492 220.877 142.222 222.209 142.222H223.667V141.52C223.667 140.848 223.505 140.368 223.181 140.08C222.857 139.792 222.359 139.648 221.687 139.648C220.991 139.648 220.139 139.816 219.131 140.152L218.717 138.946C219.893 138.514 220.985 138.298 221.993 138.298C223.109 138.298 223.943 138.574 224.495 139.126C225.047 139.666 225.323 140.44 225.323 141.448V145.786ZM221.435 146.974C222.383 146.974 223.127 146.482 223.667 145.498V143.32H222.425C220.673 143.32 219.797 143.968 219.797 145.264C219.797 145.828 219.935 146.254 220.211 146.542C220.487 146.83 220.895 146.974 221.435 146.974ZM234.322 148V143.824H230.38V148H228.724V138.514H230.38V142.492H234.322V138.514H235.978V148H234.322ZM246.773 148H245.135V143.716C245.135 142.996 245.159 142.312 245.207 141.664C245.255 141.016 245.297 140.59 245.333 140.386L241.355 148H239.393V138.514H241.031V142.798C241.031 143.434 241.007 144.094 240.959 144.778C240.911 145.45 240.875 145.882 240.851 146.074L244.775 138.514H246.773V148ZM257.35 142.978C257.35 143.254 257.338 143.536 257.314 143.824H251.266C251.338 144.868 251.602 145.636 252.058 146.128C252.514 146.62 253.102 146.866 253.822 146.866C254.278 146.866 254.698 146.8 255.082 146.668C255.466 146.536 255.868 146.326 256.288 146.038L257.008 147.028C256 147.82 254.896 148.216 253.696 148.216C252.376 148.216 251.344 147.784 250.6 146.92C249.868 146.056 249.502 144.868 249.502 143.356C249.502 142.372 249.658 141.502 249.97 140.746C250.294 139.978 250.75 139.378 251.338 138.946C251.938 138.514 252.64 138.298 253.444 138.298C254.704 138.298 255.67 138.712 256.342 139.54C257.014 140.368 257.35 141.514 257.35 142.978ZM255.712 142.492C255.712 141.556 255.526 140.842 255.154 140.35C254.782 139.858 254.224 139.612 253.48 139.612C252.124 139.612 251.386 140.608 251.266 142.6H255.712V142.492Z" fill="#003883"/>
<path d="M278.293 188.707C278.683 189.098 279.316 189.098 279.707 188.707L286.071 182.343C286.461 181.953 286.461 181.319 286.071 180.929C285.68 180.538 285.047 180.538 284.657 180.929L279 186.586L273.343 180.929C272.953 180.538 272.319 180.538 271.929 180.929C271.538 181.319 271.538 181.953 271.929 182.343L278.293 188.707ZM278 96L278 188L280 188L280 96L278 96Z" fill="#003883"/>
<path d="M77.0005 442.506L77.0005 444.216L70.9525 444.216C69.5485 444.216 68.0665 444.138 66.5065 443.982L77.0005 449.004L77.0005 451.2L64.5985 451.2L64.5985 449.49L70.6465 449.49C72.3265 449.49 73.8265 449.568 75.1465 449.724L64.5985 444.648L64.5985 442.506L77.0005 442.506ZM67.2985 436.663C67.2985 436.063 67.4005 435.505 67.6045 434.989C67.7965 434.461 68.0845 434.041 68.4685 433.729C68.8525 433.405 69.3145 433.243 69.8545 433.243C70.3825 433.243 70.8145 433.399 71.1505 433.711C71.4865 434.011 71.7445 434.491 71.9245 435.151C72.0565 434.359 72.3025 433.759 72.6625 433.351C73.0225 432.943 73.5385 432.739 74.2105 432.739C75.1945 432.739 75.9445 433.123 76.4605 433.891C76.9645 434.647 77.2165 435.613 77.2165 436.789C77.2165 438.217 76.8205 439.435 76.0285 440.443L75.0025 439.579C75.3025 439.159 75.5245 438.739 75.6685 438.319C75.8125 437.887 75.8845 437.395 75.8845 436.843C75.8845 435.295 75.3205 434.521 74.1925 434.521C73.6405 434.521 73.2565 434.743 73.0405 435.187C72.8125 435.619 72.6985 436.225 72.6985 437.005L72.6985 438.265L71.4025 438.157L71.4025 437.185C71.4025 436.513 71.2825 435.973 71.0425 435.565C70.8025 435.157 70.4305 434.953 69.9265 434.953C69.4585 434.953 69.1225 435.127 68.9185 435.475C68.7025 435.823 68.5945 436.279 68.5945 436.843C68.5945 437.335 68.6605 437.773 68.7925 438.157C68.9125 438.529 69.1045 438.907 69.3685 439.291L68.3785 440.083C68.0185 439.603 67.7485 439.087 67.5685 438.535C67.3885 437.983 67.2985 437.359 67.2985 436.663ZM68.1265 425.863C68.1265 424.783 68.5165 423.925 69.2965 423.289C70.0765 422.641 71.1385 422.317 72.4825 422.317C73.9825 422.317 75.1465 422.695 75.9745 423.451C76.8025 424.207 77.2165 425.221 77.2165 426.493C77.2165 427.765 76.7665 428.785 75.8665 429.553C74.9665 430.309 73.6045 430.687 71.7805 430.687C70.4005 430.687 69.2725 430.585 68.3965 430.381C67.5085 430.165 66.7825 429.799 66.2185 429.283C65.6425 428.755 65.1925 428.017 64.8685 427.069C64.6285 426.361 64.4125 425.797 64.2205 425.377C64.0285 424.945 63.7825 424.507 63.4825 424.063L64.7245 423.361C64.9885 423.781 65.2345 424.219 65.4625 424.675C65.6785 425.119 65.8885 425.653 66.0925 426.277C66.2965 426.877 66.5305 427.351 66.7945 427.699C67.0465 428.047 67.4185 428.329 67.9105 428.545C68.3905 428.749 69.0505 428.887 69.8905 428.959C69.3385 428.623 68.9065 428.191 68.5945 427.663C68.2825 427.135 68.1265 426.535 68.1265 425.863ZM75.8845 426.493C75.8845 425.761 75.6385 425.179 75.1465 424.747C74.6425 424.315 73.7725 424.099 72.5365 424.099C71.4445 424.099 70.6585 424.279 70.1785 424.639C69.6985 424.987 69.4585 425.497 69.4585 426.169C69.4585 426.721 69.6085 427.237 69.9085 427.717C70.1965 428.197 70.6405 428.593 71.2405 428.905L72.3925 428.905C73.5085 428.905 74.3725 428.695 74.9845 428.275C75.5845 427.843 75.8845 427.249 75.8845 426.493ZM67.2985 415.223C67.2985 414.011 67.7305 413.123 68.5945 412.559C69.4585 411.995 70.6765 411.713 72.2485 411.713C73.7365 411.713 74.9365 412.037 75.8485 412.685C76.7605 413.333 77.2165 414.251 77.2165 415.439C77.2165 416.495 76.8565 417.323 76.1365 417.923L80.6365 417.923L80.8345 419.579L67.5145 419.579L67.5145 418.157L68.7925 418.031C68.3125 417.683 67.9465 417.263 67.6945 416.771C67.4305 416.279 67.2985 415.763 67.2985 415.223ZM75.8665 415.835C75.8665 414.275 74.6605 413.495 72.2485 413.495C69.8245 413.495 68.6125 414.209 68.6125 415.637C68.6125 416.105 68.7505 416.531 69.0265 416.915C69.3025 417.299 69.6565 417.635 70.0885 417.923L74.7145 417.923C75.0865 417.683 75.3745 417.383 75.5785 417.023C75.7705 416.663 75.8665 416.267 75.8665 415.835ZM74.7865 402.677C75.1705 402.677 75.4585 402.611 75.6505 402.479C75.8305 402.347 75.9685 402.149 76.0645 401.885L77.2165 402.263C77.1565 402.755 77.0185 403.151 76.8025 403.451C76.5865 403.751 76.2505 403.973 75.7945 404.117C76.7425 404.753 77.2165 405.695 77.2165 406.943C77.2165 407.879 76.9525 408.617 76.4245 409.157C75.8965 409.697 75.2065 409.967 74.3545 409.967C73.3465 409.967 72.5725 409.607 72.0325 408.887C71.4925 408.155 71.2225 407.123 71.2225 405.791L71.2225 404.333L70.5205 404.333C69.8485 404.333 69.3685 404.495 69.0805 404.819C68.7925 405.143 68.6485 405.641 68.6485 406.313C68.6485 407.009 68.8165 407.861 69.1525 408.869L67.9465 409.283C67.5145 408.107 67.2985 407.015 67.2985 406.007C67.2985 404.891 67.5745 404.057 68.1265 403.505C68.6665 402.953 69.4405 402.677 70.4485 402.677L74.7865 402.677ZM75.9745 406.565C75.9745 405.617 75.4825 404.873 74.4985 404.333L72.3205 404.333L72.3205 405.575C72.3205 407.327 72.9685 408.203 74.2645 408.203C74.8285 408.203 75.2545 408.065 75.5425 407.789C75.8305 407.513 75.9745 407.105 75.9745 406.565ZM77.0005 393.678L72.8245 393.678L72.8245 397.62L77.0005 397.62L77.0005 399.276L67.5145 399.276L67.5145 397.62L71.4925 397.62L71.4925 393.678L67.5145 393.678L67.5145 392.022L77.0005 392.022L77.0005 393.678ZM77.0005 381.226L77.0005 382.864L72.7165 382.864C71.9965 382.864 71.3125 382.84 70.6645 382.792C70.0165 382.744 69.5905 382.702 69.3865 382.666L77.0005 386.644L77.0005 388.606L67.5145 388.606L67.5145 386.968L71.7985 386.968C72.4345 386.968 73.0945 386.992 73.7785 387.04C74.4505 387.088 74.8825 387.124 75.0745 387.148L67.5145 383.224L67.5145 381.226L77.0005 381.226ZM71.9785 370.649C72.2545 370.649 72.5365 370.661 72.8245 370.685L72.8245 376.733C73.8685 376.661 74.6365 376.397 75.1285 375.941C75.6205 375.485 75.8665 374.897 75.8665 374.177C75.8665 373.721 75.8005 373.301 75.6685 372.917C75.5365 372.533 75.3265 372.131 75.0385 371.711L76.0285 370.991C76.8205 371.999 77.2165 373.103 77.2165 374.303C77.2165 375.623 76.7845 376.655 75.9205 377.399C75.0565 378.131 73.8685 378.497 72.3565 378.497C71.3725 378.497 70.5025 378.341 69.7465 378.029C68.9785 377.705 68.3785 377.249 67.9465 376.661C67.5145 376.061 67.2985 375.359 67.2985 374.555C67.2985 373.295 67.7125 372.329 68.5405 371.657C69.3685 370.985 70.5145 370.649 71.9785 370.649ZM71.4925 372.287C70.5565 372.287 69.8425 372.473 69.3505 372.845C68.8585 373.217 68.6125 373.775 68.6125 374.519C68.6125 375.875 69.6085 376.613 71.6005 376.733L71.6005 372.287L71.4925 372.287Z" fill="#003883"/>
<path d="M78.8809 561.27L72.5317 551.625L67.3538 561.946L78.8809 561.27ZM78.8809 239.007C73.1882 239.007 68.4683 243.907 64.5731 251.669C60.6335 259.52 57.3229 270.71 54.6179 284.164C49.2043 311.09 46.1683 347.334 45.4979 384.702C44.8274 422.075 46.5223 460.621 50.5874 492.158C52.6197 507.925 55.2474 521.964 58.4768 533.238C61.6946 544.471 65.5485 553.105 70.1168 557.925L71.5684 556.549C67.3519 552.101 63.6028 543.87 60.3995 532.687C57.2077 521.544 54.5961 507.613 52.5709 491.902C48.5211 460.483 46.8284 422.038 47.4976 384.738C48.1669 347.433 51.198 311.321 56.5787 284.558C59.2709 271.168 62.5394 260.181 66.3607 252.566C70.2264 244.863 74.4491 241.007 78.8809 241.007V239.007Z" fill="#003883"/>
<path d="M18.3825 452.772C18.3825 451.728 18.6345 450.816 19.1385 450.036C19.6305 449.244 20.3565 448.632 21.3165 448.2C22.2765 447.756 23.4405 447.534 24.8085 447.534C26.1525 447.534 27.3045 447.756 28.2645 448.2C29.2245 448.632 29.9565 449.244 30.4605 450.036C30.9645 450.816 31.2165 451.728 31.2165 452.772C31.2165 453.816 30.9705 454.734 30.4785 455.526C29.9865 456.306 29.2605 456.918 28.3005 457.362C27.3405 457.794 26.1825 458.01 24.8265 458.01C23.4945 458.01 22.3425 457.794 21.3705 457.362C20.3985 456.918 19.6605 456.3 19.1565 455.508C18.6405 454.716 18.3825 453.804 18.3825 452.772ZM19.7865 452.772C19.7865 453.852 20.1945 454.692 21.0105 455.292C21.8265 455.892 23.0985 456.192 24.8265 456.192C26.5425 456.192 27.8025 455.892 28.6065 455.292C29.4105 454.68 29.8125 453.84 29.8125 452.772C29.8125 450.492 28.1445 449.352 24.8085 449.352C21.4605 449.352 19.7865 450.492 19.7865 452.772ZM21.5145 438.419L22.8645 438.617L22.8645 441.659L31.0005 441.659L31.0005 443.315L22.8645 443.315L22.8645 446.447L21.5145 446.447L21.5145 438.419ZM21.5145 430.19L31.0005 430.19L31.0005 431.846L27.0405 431.846C27.3645 432.194 27.6225 432.626 27.8145 433.142C27.9945 433.646 28.0845 434.168 28.0845 434.708C28.0845 435.608 27.8445 436.286 27.3645 436.742C26.8725 437.198 26.1765 437.426 25.2765 437.426L21.5145 437.426L21.5145 435.77L25.0785 435.77C25.6785 435.77 26.1165 435.65 26.3925 435.41C26.6565 435.158 26.7885 434.774 26.7885 434.258C26.7885 433.838 26.6925 433.4 26.5005 432.944C26.3085 432.476 26.0625 432.11 25.7625 431.846L21.5145 431.846L21.5145 430.19ZM25.9785 419.61C26.2545 419.61 26.5365 419.622 26.8245 419.646L26.8245 425.694C27.8685 425.622 28.6365 425.358 29.1285 424.902C29.6205 424.446 29.8665 423.858 29.8665 423.138C29.8665 422.682 29.8005 422.262 29.6685 421.878C29.5365 421.494 29.3265 421.092 29.0385 420.672L30.0285 419.952C30.8205 420.96 31.2165 422.064 31.2165 423.264C31.2165 424.584 30.7845 425.616 29.9205 426.36C29.0565 427.092 27.8685 427.458 26.3565 427.458C25.3725 427.458 24.5025 427.302 23.7465 426.99C22.9785 426.666 22.3785 426.21 21.9465 425.622C21.5145 425.022 21.2985 424.32 21.2985 423.516C21.2985 422.256 21.7125 421.29 22.5405 420.618C23.3685 419.946 24.5145 419.61 25.9785 419.61ZM25.4925 421.248C24.5565 421.248 23.8425 421.434 23.3505 421.806C22.8585 422.178 22.6125 422.736 22.6125 423.48C22.6125 424.836 23.6085 425.574 25.6005 425.694L25.6005 421.248L25.4925 421.248ZM21.5145 411.015L22.8645 411.213L22.8645 414.255L31.0005 414.255L31.0005 415.911L22.8645 415.911L22.8645 419.043L21.5145 419.043L21.5145 411.015ZM31.0005 403.704L26.8245 403.704L26.8245 407.646L31.0005 407.646L31.0005 409.302L21.5145 409.302L21.5145 407.646L25.4925 407.646L25.4925 403.704L21.5145 403.704L21.5145 402.048L31.0005 402.048L31.0005 403.704ZM21.2985 395.068C21.2985 393.736 21.7425 392.704 22.6305 391.972C23.5185 391.228 24.7245 390.856 26.2485 390.856C27.2325 390.856 28.1025 391.024 28.8585 391.36C29.6025 391.696 30.1845 392.182 30.6045 392.818C31.0125 393.454 31.2165 394.21 31.2165 395.086C31.2165 396.418 30.7725 397.456 29.8845 398.2C28.9965 398.944 27.7905 399.316 26.2665 399.316C25.2825 399.316 24.4185 399.148 23.6745 398.812C22.9185 398.476 22.3365 397.99 21.9285 397.354C21.5085 396.718 21.2985 395.956 21.2985 395.068ZM22.6305 395.068C22.6305 396.712 23.8425 397.534 26.2665 397.534C28.6785 397.534 29.8845 396.718 29.8845 395.086C29.8845 393.454 28.6725 392.638 26.2485 392.638C23.8365 392.638 22.6305 393.448 22.6305 395.068ZM21.2985 384.664C21.2985 384.1 21.3825 383.584 21.5505 383.116C21.7065 382.648 21.9645 382.198 22.3245 381.766L23.3685 382.558C23.1285 382.894 22.9545 383.224 22.8465 383.548C22.7265 383.86 22.6665 384.208 22.6665 384.592C22.6665 385.36 22.9725 385.96 23.5845 386.392C24.1965 386.812 25.1025 387.022 26.3025 387.022C27.5025 387.022 28.3905 386.812 28.9665 386.392C29.5305 385.972 29.8125 385.372 29.8125 384.592C29.8125 384.22 29.7585 383.878 29.6505 383.566C29.5305 383.254 29.3445 382.906 29.0925 382.522L30.1725 381.766C30.8685 382.63 31.2165 383.596 31.2165 384.664C31.2165 385.948 30.7845 386.962 29.9205 387.706C29.0565 388.438 27.8625 388.804 26.3385 388.804C25.3305 388.804 24.4485 388.636 23.6925 388.3C22.9365 387.964 22.3485 387.49 21.9285 386.878C21.5085 386.254 21.2985 385.516 21.2985 384.664ZM21.5145 373.116L22.8645 373.314L22.8645 376.356L31.0005 376.356L31.0005 378.012L22.8645 378.012L22.8645 381.144L21.5145 381.144L21.5145 373.116ZM24.5745 368.487C24.5745 367.071 24.8505 366.045 25.4025 365.409C25.9545 364.773 26.7405 364.455 27.7605 364.455C28.8285 364.455 29.6385 364.815 30.1905 365.535C30.7305 366.243 31.0005 367.125 31.0005 368.181L31.0005 371.403L21.5145 371.403L21.5145 369.747L24.5745 369.747L24.5745 368.487ZM29.7045 368.325C29.7045 367.653 29.5545 367.137 29.2545 366.777C28.9545 366.405 28.4565 366.219 27.7605 366.219C27.1005 366.219 26.6145 366.393 26.3025 366.741C25.9905 367.077 25.8345 367.665 25.8345 368.505L25.8345 369.747L29.7045 369.747L29.7045 368.325Z" fill="#789DCE"/>
<path d="M79.0037 217.445L68.9857 211.703L69.0218 223.249L79.0037 217.445ZM69.8103 216.492C60.4957 218.327 52.2481 225.52 45.1066 236.411C37.9531 247.321 31.8133 262.084 26.7598 279.349C16.6506 313.888 10.8335 358.636 10.044 403.113C9.2545 447.585 13.4899 491.87 23.537 525.471C28.5597 542.268 35.0529 556.458 43.1468 566.668C51.2508 576.89 61.0093 583.178 72.521 583.998L72.6631 582.003C61.8661 581.234 52.5796 575.347 44.7141 565.425C36.8384 555.491 30.4375 541.567 25.4532 524.898C15.4863 491.566 11.2562 447.505 12.0436 403.149C12.831 358.798 18.633 314.235 28.6792 279.911C33.7034 262.746 39.7752 248.189 46.7792 237.508C53.7951 226.808 61.6507 220.138 70.1969 218.454L69.8103 216.492Z" fill="#789DCE"/>
<path d="M74.7839 89L63.4186 86.9593L67.334 97.8223L74.7839 89ZM65.8545 91.1654C54.8025 96.9586 45.1853 109.169 36.9712 125.873C28.7444 142.603 21.8607 163.974 16.35 188.279C5.32762 236.892 -0.232565 297.382 0.00720608 356.286C0.246948 415.183 6.28544 472.57 18.5005 514.963C24.6061 536.152 32.2754 553.67 41.5913 565.759C50.9171 577.861 61.985 584.626 74.8334 583.999L74.7359 582.001C62.7654 582.586 52.2615 576.329 43.1754 564.538C34.0794 552.735 26.4965 535.49 20.4223 514.409C8.27787 472.261 2.24653 415.078 2.00719 356.278C1.76787 297.486 7.31935 237.153 18.3005 188.721C23.7915 164.504 30.6325 143.296 38.766 126.756C46.9122 110.19 56.2908 98.4366 66.783 92.9368L65.8545 91.1654Z" fill="#789DCE"/>
<path d="M1299.5 653L1309.92 657.984L1309.03 646.472L1299.5 653ZM1299.5 367C1325.03 367 1344.48 383.566 1357.78 409.016C1371.09 434.468 1378.14 468.637 1378.88 503.354C1379.63 538.067 1374.06 573.22 1362.23 600.626C1350.39 628.054 1332.37 647.515 1308.31 651.318L1308.62 653.294C1333.66 649.336 1352.1 629.129 1364.07 601.419C1376.04 573.687 1381.63 538.234 1380.88 503.311C1380.13 468.391 1373.04 433.895 1359.55 408.089C1346.06 382.282 1326.07 365 1299.5 365V367Z" fill="#789DCE"/>
</svg>
